<?xml version="1.0" encoding="UTF-8"?>
<svg width="500" height="400" viewBox="0 0 500 400" xmlns="http://www.w3.org/2000/svg">
  <!-- Background -->
  <rect width="500" height="400" fill="#F5F1EE" opacity="0.1"/>
  
  <!-- Desk -->
  <path d="M50 300 h400 v30 h-400 z" fill="#8B4513"/>
  
  <!-- Girl developer -->
  <g transform="translate(180,80)">
    <!-- Hair with side bangs -->
    <path d="M100 20
             C140 20, 160 80, 140 120
             L120 180 L80 180 L60 120
             C40 80, 60 20, 100 20"
          fill="#4A2D20"/>
    
    <!-- Face -->
    <circle cx="100" cy="80" r="40" fill="#D2691E"/>
    <!-- Eyes -->
    <path d="M85 75 q7 8 14 0" stroke="#4A2D20" stroke-width="2.5" fill="none"/>
    <path d="M115 75 q7 8 14 0" stroke="#4A2D20" stroke-width="2.5" fill="none"/>
    <!-- Smile -->
    <path d="M90 90 q10 10 20 0" stroke="#4A2D20" stroke-width="2.5" fill="none"/>
    
    <!-- Top/Shirt -->
    <path d="M60 120
             L140 120
             L150 220
             L50 220
             Z" 
          fill="#D2691E"/>
    
    <!-- Computer Setup -->
    <!-- Monitor -->
    <rect x="-20" y="140" width="180" height="120" rx="10" fill="#8B4513"/>
    <rect x="-15" y="145" width="170" height="110" rx="8" fill="#F5F1EE"/>
    <!-- Stand -->
    <path d="M50 260 h40 l10 20 h-60 z" fill="#8B4513"/>
    
    <!-- Code on Screen -->
    <g fill="#8B4513" opacity="0.4">
      <rect x="0" y="155" width="140" height="4" rx="2"/>
      <rect x="0" y="165" width="100" height="4" rx="2"/>
      <rect x="0" y="175" width="120" height="4" rx="2"/>
      <rect x="0" y="185" width="90" height="4" rx="2"/>
      <rect x="0" y="195" width="130" height="4" rx="2"/>
    </g>
    
    <!-- Arms -->
    <path d="M70 140 C60 160, 50 180, 70 200" 
          stroke="#D2691E" stroke-width="12" stroke-linecap="round" fill="none"/>
    <path d="M130 140 C140 160, 150 180, 130 200" 
          stroke="#D2691E" stroke-width="12" stroke-linecap="round" fill="none"/>
  </g>
  
  <!-- Coffee Cup -->
  <g transform="translate(400,250)">
    <rect x="0" y="0" width="25" height="35" rx="4" fill="#D2691E"/>
    <ellipse cx="12.5" cy="0" rx="15" ry="5" fill="#D2691E"/>
    <path d="M25 10 q10 10 0 20" stroke="#D2691E" stroke-width="4" fill="none"/>
  </g>
</svg>