<?xml version="1.0" encoding="UTF-8"?>
<svg width="400" height="300" viewBox="0 0 400 300" fill="none" xmlns="http://www.w3.org/2000/svg">
    <!-- Portfolio website layout -->
    <rect x="50" y="50" width="300" height="200" rx="10" fill="#F5F1EE"/>
    
    <!-- Header/Navigation -->
    <rect x="70" y="60" width="260" height="30" rx="5" fill="#D2691E"/>
    <circle cx="85" cy="75" r="5" fill="#FAF9F6"/>
    <rect x="180" y="70" width="30" height="5" rx="2.5" fill="#FAF9F6"/>
    <rect x="220" y="70" width="30" height="5" rx="2.5" fill="#FAF9F6"/>
    <rect x="260" y="70" width="30" height="5" rx="2.5" fill="#FAF9F6"/>
    
    <!-- Content sections -->
    <rect x="70" y="100" width="120" height="80" rx="5" fill="#FAF9F6"/>
    <rect x="200" y="100" width="130" height="80" rx="5" fill="#8B4513"/>
    <rect x="70" y="190" width="260" height="40" rx="5" fill="#B08B75"/>
    
    <!-- Decorative elements -->
    <circle cx="320" cy="40" r="15" fill="#B08B75" opacity="0.3"/>
    <circle cx="80" cy="260" r="20" fill="#D2691E" opacity="0.3"/>
    <circle cx="350" cy="200" r="25" fill="#8B4513" opacity="0.3"/>
    
    <!-- Text indicators -->
    <rect x="85" y="120" width="90" height="5" rx="2.5" fill="#4A2D20"/>
    <rect x="85" y="135" width="70" height="5" rx="2.5" fill="#B08B75"/>
    <rect x="215" y="120" width="100" height="5" rx="2.5" fill="#FAF9F6"/>
</svg>
