<?xml version="1.0" encoding="UTF-8"?>
<svg width="400" height="300" viewBox="0 0 400 300" fill="none" xmlns="http://www.w3.org/2000/svg">
    <!-- Background -->
    <circle cx="200" cy="150" r="100" fill="#F5F1EE"/>
    
    <!-- Weather Elements -->
    <g transform="translate(120, 100)">
        <!-- Sun -->
        <circle cx="60" cy="60" r="30" fill="#D2691E"/>
        <circle cx="60" cy="60" r="40" fill="#D2691E" opacity="0.3"/>
        
        <!-- Cloud -->
        <path d="M100 80 Q130 60 160 80 Q190 80 200 100 Q210 120 190 130 Q170 140 130 130 Q110 120 100 100 Q90 80 100 80" fill="#8B4513"/>
        
        <!-- Rain Drops -->
        <path d="M120 140 L130 160 M140 140 L150 160 M160 140 L170 160" stroke="#B08B75" stroke-width="3"/>
        
        <!-- Temperature Display -->
        <rect x="20" y="120" width="60" height="80" rx="8" fill="#D2691E"/>
        <text x="35" y="170" fill="white" font-family="Arial" font-size="20">23°</text>
    </g>
    
    <!-- Decorative Elements -->
    <circle cx="300" cy="80" r="15" fill="#B08B75" opacity="0.3"/>
    <circle cx="100" cy="200" r="20" fill="#D2691E" opacity="0.3"/>
    <circle cx="320" cy="220" r="25" fill="#8B4513" opacity="0.3"/>
</svg>
